<?xml version="1.0" encoding="UTF-8"?>
<svg xmlns="http://www.w3.org/2000/svg" xmlns:xlink="http://www.w3.org/1999/xlink" width="16px" height="16px" viewBox="0 0 16 16" version="1.1">
<g id="surface1">
<path style=" stroke:none;fill-rule:nonzero;fill:rgb(10.588235%,62.7451%,76.47059%);fill-opacity:1;" d="M 13.523438 16 L 2.476562 16 C 1.101562 16 0 14.898438 0 13.539062 L 0 2.476562 C 0 1.113281 1.101562 0 2.476562 0 L 13.539062 0 C 14.898438 0 16 1.113281 16 2.476562 L 16 13.539062 C 16 14.898438 14.898438 16 13.523438 16 Z M 13.523438 16 "/>
<path style=" stroke:none;fill-rule:nonzero;fill:rgb(40.784314%,77.64706%,85.490197%);fill-opacity:1;" d="M 13.398438 13.875 L 7.6875 13.875 C 7.363281 13.875 7.101562 13.613281 7.101562 13.289062 L 7.101562 12.898438 C 7.101562 12.574219 7.363281 12.3125 7.6875 12.3125 L 13.386719 12.3125 C 13.710938 12.3125 13.976562 12.574219 13.976562 12.898438 L 13.976562 13.289062 C 13.988281 13.613281 13.710938 13.875 13.398438 13.875 Z M 13.398438 13.875 "/>
<path style=" stroke:none;fill-rule:nonzero;fill:rgb(100%,100%,100%);fill-opacity:1;" d="M 10.023438 10.261719 L 3 10.261719 C 2.710938 10.261719 2.488281 10.039062 2.488281 9.75 C 2.488281 9.460938 2.710938 9.238281 3 9.238281 L 10.039062 9.238281 C 10.324219 9.238281 10.550781 9.460938 10.550781 9.75 C 10.539062 10.023438 10.3125 10.261719 10.023438 10.261719 Z M 10.023438 10.261719 "/>
<path style=" stroke:none;fill-rule:nonzero;fill:rgb(100%,100%,100%);fill-opacity:1;" d="M 8.289062 13.886719 L 2.585938 13.886719 C 2.261719 13.886719 2 13.625 2 13.300781 L 2 12.914062 C 2 12.585938 2.261719 12.324219 2.585938 12.324219 L 8.289062 12.324219 C 8.613281 12.324219 8.875 12.585938 8.875 12.914062 L 8.875 13.300781 C 8.875 13.625 8.613281 13.886719 8.289062 13.886719 Z M 8.289062 13.886719 "/>
<path style=" stroke:none;fill-rule:nonzero;fill:rgb(100%,100%,100%);fill-opacity:1;" d="M 9.636719 13.113281 C 9.636719 12.492188 9.132812 11.988281 8.511719 11.988281 C 7.890625 11.988281 7.386719 12.492188 7.386719 13.113281 C 7.386719 13.734375 7.890625 14.238281 8.511719 14.238281 C 9.132812 14.238281 9.636719 13.734375 9.636719 13.113281 Z M 9.636719 13.113281 "/>
<path style=" stroke:none;fill-rule:nonzero;fill:rgb(10.588235%,62.7451%,76.47059%);fill-opacity:1;" d="M 9.386719 13.113281 C 9.386719 12.628906 8.996094 12.238281 8.511719 12.238281 C 8.027344 12.238281 7.636719 12.628906 7.636719 13.113281 C 7.636719 13.597656 8.027344 13.988281 8.511719 13.988281 C 8.996094 13.988281 9.386719 13.597656 9.386719 13.113281 Z M 9.386719 13.113281 "/>
<path style=" stroke:none;fill-rule:nonzero;fill:rgb(100%,100%,100%);fill-opacity:1;" d="M 13.988281 9.789062 C 13.988281 9.097656 13.429688 8.539062 12.738281 8.539062 C 12.046875 8.539062 11.488281 9.097656 11.488281 9.789062 C 11.488281 10.476562 12.046875 11.039062 12.738281 11.039062 C 13.429688 11.039062 13.988281 10.476562 13.988281 9.789062 Z M 13.988281 9.789062 "/>
<path style="fill-rule:nonzero;fill:rgb(100%,100%,100%);fill-opacity:1;stroke-width:1;stroke-linecap:butt;stroke-linejoin:miter;stroke:rgb(100%,100%,100%);stroke-opacity:1;stroke-miterlimit:10;" d="M 38.410449 38.101575 L 86.991979 38.094307 L 86.993088 40.00056 L 38.411558 40.007828 Z M 38.410449 38.101575 " transform="matrix(0.0226125,-0.122938,0.122938,0.0226125,1.623113,11.704263)"/>
<path style="fill-rule:nonzero;fill:rgb(100%,100%,100%);fill-opacity:1;stroke-width:1;stroke-linecap:butt;stroke-linejoin:miter;stroke:rgb(100%,100%,100%);stroke-opacity:1;stroke-miterlimit:10;" d="M 68.90625 45.09375 C 68.6875 45.09375 68.5 45 68.3125 44.90625 C 67.90625 44.5 67.90625 44 68.1875 43.59375 C 69.90625 41.6875 70.40625 39.1875 70.40625 37.5 C 70.5 35.1875 69.90625 32.90625 69.40625 30.59375 L 67.3125 21.40625 C 66.90625 19.40625 66.40625 17.1875 66.8125 15.09375 C 62.09375 20 59.8125 26.90625 60.6875 33.6875 C 60.8125 34.1875 60.40625 34.6875 59.90625 34.8125 C 59.40625 34.90625 58.90625 34.5 58.8125 34 C 57.8125 25.8125 61 17.5 67 12.3125 C 67.09375 12.1875 67.09375 12.1875 67.1875 12.09375 C 67.59375 11.6875 68.09375 11.3125 69 11.1875 C 69.40625 11.09375 69.6875 11.3125 69.90625 11.6875 C 70.09375 12.09375 70 12.40625 69.8125 12.8125 C 68 14.90625 68.5 18 69.1875 21 L 71.3125 30.1875 C 71.8125 32.59375 72.40625 35 72.3125 37.59375 C 72.1875 39.6875 71.6875 42.59375 69.59375 44.90625 C 69.40625 45 69.09375 45.09375 68.90625 45.09375 Z M 68.90625 45.09375 " transform="matrix(0.125,0,0,0.125,0,0)"/>
<path style=" stroke:none;fill-rule:nonzero;fill:rgb(100%,100%,100%);fill-opacity:1;" d="M 7.539062 6.625 C 7.488281 6.625 7.449219 6.601562 7.425781 6.550781 L 7.050781 5.664062 C 7.023438 5.601562 7.050781 5.539062 7.113281 5.511719 C 7.175781 5.488281 7.238281 5.511719 7.261719 5.574219 L 7.5625 6.273438 C 7.699219 6.101562 7.851562 5.9375 8.011719 5.789062 C 8.0625 5.738281 8.136719 5.75 8.175781 5.789062 C 8.226562 5.835938 8.210938 5.914062 8.175781 5.949219 C 7.976562 6.136719 7.800781 6.351562 7.636719 6.574219 C 7.613281 6.601562 7.574219 6.625 7.539062 6.625 Z M 7.539062 6.625 "/>
<path style=" stroke:none;fill-rule:nonzero;fill:rgb(100%,100%,100%);fill-opacity:1;" d="M 7.449219 7.25 C 7.398438 7.25 7.363281 7.226562 7.335938 7.175781 L 6.960938 6.289062 C 6.9375 6.226562 6.960938 6.164062 7.023438 6.136719 C 7.085938 6.113281 7.148438 6.136719 7.175781 6.199219 L 7.476562 6.898438 C 7.613281 6.726562 7.761719 6.5625 7.925781 6.414062 C 7.976562 6.363281 8.050781 6.375 8.085938 6.414062 C 8.136719 6.460938 8.125 6.539062 8.085938 6.574219 C 7.886719 6.761719 7.710938 6.976562 7.550781 7.199219 C 7.539062 7.226562 7.5 7.25 7.449219 7.25 Z M 7.449219 7.25 "/>
</g>
</svg>
