<?xml version="1.0" encoding="UTF-8"?>
<svg xmlns="http://www.w3.org/2000/svg" xmlns:xlink="http://www.w3.org/1999/xlink" width="48px" height="48px" viewBox="0 0 48 48" version="1.1">
<g id="surface1">
<path style=" stroke:none;fill-rule:nonzero;fill:rgb(10.588235%,62.7451%,76.47059%);fill-opacity:1;" d="M 40.574219 48 L 7.425781 48 C 3.300781 48 0 44.699219 0 40.613281 L 0 7.425781 C 0 3.335938 3.300781 0 7.425781 0 L 40.613281 0 C 44.699219 0 48 3.335938 48 7.425781 L 48 40.613281 C 48 44.699219 44.699219 48 40.574219 48 Z M 40.574219 48 "/>
<path style=" stroke:none;fill-rule:nonzero;fill:rgb(40.784314%,77.64706%,85.490197%);fill-opacity:1;" d="M 40.199219 41.625 L 23.0625 41.625 C 22.085938 41.625 21.300781 40.835938 21.300781 39.863281 L 21.300781 38.699219 C 21.300781 37.726562 22.085938 36.9375 23.0625 36.9375 L 40.164062 36.9375 C 41.136719 36.9375 41.925781 37.726562 41.925781 38.699219 L 41.925781 39.863281 C 41.960938 40.835938 41.136719 41.625 40.199219 41.625 Z M 40.199219 41.625 "/>
<path style=" stroke:none;fill-rule:nonzero;fill:rgb(100%,100%,100%);fill-opacity:1;" d="M 30.074219 30.789062 L 9 30.789062 C 8.136719 30.789062 7.460938 30.113281 7.460938 29.25 C 7.460938 28.386719 8.136719 27.710938 9 27.710938 L 30.113281 27.710938 C 30.976562 27.710938 31.648438 28.386719 31.648438 29.25 C 31.613281 30.074219 30.9375 30.789062 30.074219 30.789062 Z M 30.074219 30.789062 "/>
<path style=" stroke:none;fill-rule:nonzero;fill:rgb(100%,100%,100%);fill-opacity:1;" d="M 24.863281 41.664062 L 7.761719 41.664062 C 6.789062 41.664062 6 40.875 6 39.898438 L 6 38.738281 C 6 37.761719 6.789062 36.976562 7.761719 36.976562 L 24.863281 36.976562 C 25.835938 36.976562 26.625 37.761719 26.625 38.738281 L 26.625 39.898438 C 26.625 40.875 25.835938 41.664062 24.863281 41.664062 Z M 24.863281 41.664062 "/>
<path style=" stroke:none;fill-rule:nonzero;fill:rgb(100%,100%,100%);fill-opacity:1;" d="M 28.914062 39.335938 C 28.914062 37.472656 27.402344 35.960938 25.539062 35.960938 C 23.671875 35.960938 22.164062 37.472656 22.164062 39.335938 C 22.164062 41.203125 23.671875 42.710938 25.539062 42.710938 C 27.402344 42.710938 28.914062 41.203125 28.914062 39.335938 Z M 28.914062 39.335938 "/>
<path style=" stroke:none;fill-rule:nonzero;fill:rgb(10.588235%,62.7451%,76.47059%);fill-opacity:1;" d="M 28.164062 39.335938 C 28.164062 37.886719 26.988281 36.710938 25.539062 36.710938 C 24.085938 36.710938 22.914062 37.886719 22.914062 39.335938 C 22.914062 40.789062 24.085938 41.960938 25.539062 41.960938 C 26.988281 41.960938 28.164062 40.789062 28.164062 39.335938 Z M 28.164062 39.335938 "/>
<path style=" stroke:none;fill-rule:nonzero;fill:rgb(100%,100%,100%);fill-opacity:1;" d="M 41.960938 29.363281 C 41.960938 27.292969 40.285156 25.613281 38.210938 25.613281 C 36.140625 25.613281 34.460938 27.292969 34.460938 29.363281 C 34.460938 31.433594 36.140625 33.113281 38.210938 33.113281 C 40.285156 33.113281 41.960938 31.433594 41.960938 29.363281 Z M 41.960938 29.363281 "/>
<path style="fill-rule:nonzero;fill:rgb(100%,100%,100%);fill-opacity:1;stroke-width:1;stroke-linecap:butt;stroke-linejoin:miter;stroke:rgb(100%,100%,100%);stroke-opacity:1;stroke-miterlimit:10;" d="M 38.400204 38.10346 L 87.004108 38.102668 L 87.003333 39.998675 L 38.399429 39.999467 Z M 38.400204 38.10346 " transform="matrix(0.0678375,-0.368813,0.368813,0.0678375,4.869338,35.112788)"/>
<path style="fill-rule:nonzero;fill:rgb(100%,100%,100%);fill-opacity:1;stroke-width:1;stroke-linecap:butt;stroke-linejoin:miter;stroke:rgb(100%,100%,100%);stroke-opacity:1;stroke-miterlimit:10;" d="M 68.895833 45.104167 C 68.697917 45.104167 68.5 45 68.302083 44.895833 C 67.895833 44.5 67.895833 44 68.197917 43.604167 C 69.895833 41.697917 70.395833 39.197917 70.395833 37.5 C 70.5 35.197917 69.895833 32.895833 69.395833 30.604167 L 67.302083 21.395833 C 66.895833 19.395833 66.395833 17.197917 66.802083 15.104167 C 62.104167 20 59.802083 26.895833 60.697917 33.697917 C 60.802083 34.197917 60.395833 34.697917 59.895833 34.802083 C 59.395833 34.895833 58.895833 34.5 58.802083 34 C 57.802083 25.802083 61 17.5 67 12.302083 C 67.104167 12.197917 67.104167 12.197917 67.197917 12.104167 C 67.604167 11.697917 68.104167 11.302083 69 11.197917 C 69.395833 11.104167 69.697917 11.302083 69.895833 11.697917 C 70.104167 12.104167 70 12.395833 69.802083 12.802083 C 68 14.895833 68.5 18 69.197917 21 L 71.302083 30.197917 C 71.802083 32.604167 72.395833 35 72.302083 37.604167 C 72.197917 39.697917 71.697917 42.604167 69.604167 44.895833 C 69.395833 45 69.104167 45.104167 68.895833 45.104167 Z M 68.895833 45.104167 " transform="matrix(0.375,0,0,0.375,0,0)"/>
<path style=" stroke:none;fill-rule:nonzero;fill:rgb(100%,100%,100%);fill-opacity:1;" d="M 22.613281 19.875 C 22.460938 19.875 22.351562 19.800781 22.273438 19.648438 L 21.148438 16.988281 C 21.074219 16.800781 21.148438 16.613281 21.335938 16.539062 C 21.523438 16.460938 21.710938 16.539062 21.789062 16.726562 L 22.6875 18.824219 C 23.101562 18.300781 23.550781 17.8125 24.039062 17.363281 C 24.1875 17.210938 24.414062 17.25 24.523438 17.363281 C 24.675781 17.511719 24.636719 17.738281 24.523438 17.851562 C 23.925781 18.414062 23.398438 19.050781 22.914062 19.726562 C 22.835938 19.800781 22.726562 19.875 22.613281 19.875 Z M 22.613281 19.875 "/>
<path style=" stroke:none;fill-rule:nonzero;fill:rgb(100%,100%,100%);fill-opacity:1;" d="M 22.351562 21.75 C 22.199219 21.75 22.085938 21.675781 22.011719 21.523438 L 20.886719 18.863281 C 20.8125 18.675781 20.886719 18.488281 21.074219 18.414062 C 21.261719 18.335938 21.449219 18.414062 21.523438 18.601562 L 22.425781 20.699219 C 22.835938 20.175781 23.289062 19.6875 23.773438 19.238281 C 23.925781 19.085938 24.148438 19.125 24.261719 19.238281 C 24.414062 19.386719 24.375 19.613281 24.261719 19.726562 C 23.664062 20.289062 23.136719 20.925781 22.648438 21.601562 C 22.613281 21.675781 22.5 21.75 22.351562 21.75 Z M 22.351562 21.75 "/>
</g>
</svg>
