<svg
  version="1.1"
  id="logo_plume"
  width="100%"
  height="100%"
  xmlns="http://www.w3.org/2000/svg"
  xmlns:xlink="http://www.w3.org/1999/xlink"
  viewBox="0 0 557.6 299.3"
  author="Rebecca ȘES"
>
  <style type="text/css">
    .st0 { fill-rule: evenodd; clip-rule: evenodd; fill: #20A0C3; }
    .st1 { fill: #20A0C3; }
    .st2 { fill: #20A0C3; stroke: #1FA0C3; stroke-width: 3; stroke-miterlimit: 7.2021; }
    .st3 { fill: #20A0C3; stroke: #1FA0C3; stroke-width: 0.5; stroke-miterlimit: 7.2021; }
  </style>
  <g>
    <g id="plume_p">
      <g id="plume_p_">
        <path
          vector-effect="non-scaling-stroke"
          class="st0"
          d="M31.4,178.7l5.8-12.6c12.5,0,18.7,5.4,18.7,16.2v3.8 c3.5-6.5,8-11.8,13.5-15.9s11.9-6.2,19.3-6.2c6.5,0,12.1,1.7,16.9,5c4.8,3.3,8.5,7.9,11.1,13.7c2.6,5.8,3.9,12.6,3.9,20.3 c0,8.9-1.3,17-3.9,24.2c-2.6,7.3-6.1,13.5-10.5,18.7c-4.4,5.2-9.4,9.2-14.9,12s-11.2,4.1-17.1,4.1c-5.8,0-11.1-1.4-16.1-4.3 c-5-2.9-8.9-6.4-11.6-10.6l-9.2,52.4H21l18.7-107.1c0.4-2,0.5-3.7,0.5-5C40.3,181.5,37.3,178.7,31.4,178.7z M52.1,214.1 l-3.2,18.2c2.6,4.8,6.1,8.5,10.3,11.2c4.2,2.6,8.7,4,13.5,4c5.6,0,10.8-1.8,15.6-5.5c4.7-3.7,8.6-8.7,11.4-15.2 c2.9-6.5,4.3-13.9,4.3-22.3c0-8.2-1.9-14.6-5.6-19.4c-3.7-4.7-8.6-7.1-14.6-7.1c-4.8,0-9.4,1.5-13.8,4.5s-8.1,7.2-11.3,12.6 C55.7,200.5,53.5,206.8,52.1,214.1z"
        />
      </g>
    </g>
    <g id="plume_feather">
      <g>
        <rect x="75.1" y="174.7" transform="matrix(0.1809 -0.9835 0.9835 0.1809 -41.9654 305.8548)" class="st2" width="175.1" height="6.8"/>
      </g>
      <g>
        <path
          class="st2"
          d="M184.8,199.9c-0.8,0-1.6-0.3-2.3-0.9c-1.4-1.3-1.5-3.4-0.2-4.8c6.3-6.9,7.8-15.8,8-22 c0.2-8.3-1.7-16.7-3.5-24.8l-7.4-33.1c-1.6-7.3-3.1-15.2-1.9-22.6c-16.8,17.6-25.1,42.6-21.9,67c0.2,1.9-1.1,3.6-2.9,3.8 c-1.9,0.2-3.6-1.1-3.8-2.9c-3.9-29,7.4-58.9,29.3-77.9c0.2-0.2,0.4-0.4,0.7-0.6c1.5-1.4,3.3-2.9,6.5-3.4c1.4-0.2,2.7,0.5,3.4,1.7 c0.7,1.2,0.5,2.7-0.4,3.8c-6.5,7.6-4.7,18.7-2.3,29.5l7.4,33.1c1.9,8.6,3.9,17.4,3.7,26.5c-0.2,7.4-2,17.9-9.7,26.4 C186.6,199.5,185.7,199.9,184.8,199.9z"
        />
      </g>
      <g>
        <path
          class="st3"
          d="M154,228.4c-0.1,0-0.2,0-0.3,0c-1.2-0.1-2.3-0.9-2.8-2L140,200.9c-0.7-1.7,0.1-3.7,1.8-4.4 c1.7-0.7,3.7,0.1,4.4,1.8l8.5,20c3.9-5.1,8.2-9.8,12.8-14.2c1.4-1.3,3.5-1.2,4.8,0.1c1.3,1.4,1.2,3.5-0.1,4.8 c-5.7,5.5-10.9,11.5-15.5,18C156.1,227.8,155.1,228.4,154,228.4z"
        />
      </g>
      <g>
        <path
          class="st3"
          d="M151.6,246.4c-0.1,0-0.2,0-0.3,0c-1.2-0.1-2.3-0.9-2.8-2l-10.9-25.4c-0.7-1.7,0.1-3.7,1.8-4.4 c1.7-0.7,3.7,0.1,4.4,1.8l8.5,20c3.9-5.1,8.2-9.8,12.8-14.2c1.4-1.3,3.5-1.2,4.8,0.1c1.3,1.4,1.2,3.5-0.1,4.8 c-5.7,5.5-10.9,11.5-15.5,18C153.8,245.9,152.7,246.4,151.6,246.4z"
        />
      </g>
    </g>
    <g id="plume_ume">
      <g id="plume_u">
        <path
          vector-effect="non-scaling-stroke"
          class="st0"
          d="M207.9,225.7l10.3-59.6h16.2l-10.4,59.2c-0.1,1.2-0.2,2.3-0.4,3.2 c-0.1,0.9-0.2,1.9-0.2,3c0,5.4,1.6,9.4,4.7,12.1c3.1,2.6,6.8,4,11,4c4.6,0,9-1.4,13.4-4.2c4.4-2.8,8.3-6.9,11.6-12.2 c3.4-5.3,5.7-11.6,7-19.1l8.1-45.9h16.2l-11.9,68.2c-0.1,0.6-0.2,1.3-0.3,2.1c-0.1,0.8-0.1,1.6-0.1,2.4c0,3.4,1,5.7,2.9,7.1 c1.9,1.4,4.4,2.1,7.6,2.1l-5.6,12.6c-6.5,0-11.4-1.6-14.9-4.8c-3.4-3.2-5.1-8.1-5.1-14.9v-1.6c-8.8,15-20.2,22.5-34.4,22.5 c-4.8,0-9.2-1.1-13.2-3.2c-4-2.2-7.2-5.2-9.6-9.1s-3.6-8.6-3.6-14c0-1.6,0.1-3.2,0.2-4.8C207.5,229.2,207.6,227.5,207.9,225.7z"
        />
        <path
          class="st1"
          d="M233.6,261.9c-4.8,0-9.2-1.1-13.2-3.2c-4-2.2-7.3-5.2-9.6-9.1c-2.4-3.9-3.6-8.6-3.6-14 c0-1.6,0.1-3.2,0.2-4.8c0.1-1.6,0.3-3.3,0.5-5.1v0l10.3-59.6h16.3l0,0l-10.4,59.2c-0.1,1.2-0.2,2.3-0.4,3.1 c-0.1,0.9-0.2,1.9-0.2,3c0,5.4,1.6,9.4,4.7,12c3.1,2.6,6.8,4,11,4c4.5,0,9-1.4,13.4-4.2c4.4-2.8,8.3-6.9,11.6-12.1 c3.3-5.3,5.7-11.7,7-19.1l8.1-45.9h16.3l0,0l-11.9,68.2c-0.1,0.6-0.2,1.3-0.3,2.1c-0.1,0.8-0.1,1.6-0.1,2.4c0,3.3,1,5.7,2.9,7.1 c1.9,1.4,4.4,2.1,7.5,2.1h0l0,0l-5.6,12.6h0c-3.2,0-6.1-0.4-8.6-1.2c-2.5-0.8-4.6-2-6.3-3.6c-1.7-1.6-3-3.6-3.9-6.1 c-0.9-2.5-1.3-5.4-1.3-8.8v-1.5c-4.4,7.4-9.4,13.1-15.1,16.8c-2.9,1.9-5.9,3.3-9.1,4.2S237.2,261.9,233.6,261.9z M207.9,225.7 c-0.2,1.8-0.4,3.5-0.5,5.1c-0.1,1.6-0.2,3.2-0.2,4.8c0,5.4,1.2,10.1,3.6,13.9c2.4,3.9,5.6,6.9,9.6,9.1s8.4,3.2,13.2,3.2 c14.1,0,25.7-7.6,34.4-22.5l0-0.1v1.7c0,6.7,1.7,11.7,5.1,14.8c3.4,3.2,8.4,4.8,14.8,4.8l5.6-12.6c-3.1,0-5.6-0.7-7.5-2.1 c-1.9-1.4-2.9-3.8-2.9-7.1c0-0.8,0-1.7,0.1-2.4c0.1-0.8,0.2-1.5,0.3-2.1l11.9-68.2h-16.2l-8.1,45.9c-1.3,7.4-3.7,13.8-7,19.1 c-3.3,5.3-7.3,9.4-11.6,12.2c-4.4,2.8-8.9,4.2-13.4,4.2c-4.2,0-7.9-1.3-11-4c-1.6-1.3-2.7-3-3.5-5c-0.8-2-1.2-4.4-1.2-7.1 c0-1.1,0.1-2.1,0.2-3c0.1-0.9,0.2-2,0.4-3.1l10.4-59.2h-16.2L207.9,225.7L207.9,225.7z"
        />
      </g>
      <g id="plume_m">
        <path
          vector-effect="non-scaling-stroke"
          class="st0"
          d="M393,221l-6.8,38.7h-16.2l10.3-56c0.6-2.9,1-5,1.1-6.4s0.2-2.7,0.2-3.9 c0-4.7-1.4-8.4-4.1-11.2c-2.7-2.8-6.2-4.1-10.5-4.1c-4.2,0-8.6,1.6-13.3,4.7s-8.9,8-12.8,14.5c-3.8,6.5-6.7,14.9-8.5,25.1 l-6.5,37.3h-16.2l16.4-93.6h15.7l-4,21.6c3.6-7.2,8.5-13,14.7-17.3s12.6-6.5,19.2-6.5c7.4,0,13.4,2.3,18,6.8s7.1,10.2,7.7,17 c4.1-7.4,9.1-13.3,15-17.5s12.4-6.3,19.4-6.3c8,0,14.4,2.5,19.2,7.5c4.7,5,7.1,11.1,7.1,18.3c0,3-0.4,6.8-1.1,11.3l-10.4,58.7 h-16.2l10.3-56c0.6-2.9,1-5,1.1-6.4c0.1-1.4,0.2-2.7,0.2-3.9c0-4.7-1.4-8.4-4.1-11.2s-6.2-4.1-10.5-4.1c-4,0-8.3,1.5-13,4.5 c-4.7,3-8.9,7.7-12.8,14C397.6,202.9,394.8,211.1,393,221z"
        />
        <path
          class="st1"
          d="M446.5,259.8h-16.3l0,0l10.3-56c0.6-2.9,1-5,1.1-6.4c0.1-1.4,0.2-2.7,0.2-3.9c0-4.7-1.4-8.4-4-11.1 s-6.2-4.1-10.5-4.1c-3.9,0-8.3,1.5-13,4.5c-4.7,3-9,7.7-12.8,13.9c-3.8,6.3-6.7,14.5-8.5,24.4l-6.8,38.7h-16.3l0,0l10.3-56 c0.6-2.9,1-5,1.1-6.4c0.1-1.4,0.2-2.7,0.2-3.9c0-4.7-1.4-8.4-4-11.1c-2.7-2.7-6.2-4.1-10.5-4.1c-4.2,0-8.7,1.6-13.3,4.7 c-4.7,3.1-9,8-12.8,14.5c-3.8,6.5-6.7,15-8.5,25.1l-6.5,37.3h-16.3l0,0l16.4-93.6h15.7l0,0l-3.9,21.4c1.8-3.5,3.9-6.7,6.3-9.6 c2.4-2.9,5.2-5.4,8.3-7.6c3.1-2.2,6.3-3.8,9.4-4.9s6.5-1.6,9.8-1.6c3.7,0,7.1,0.6,10.1,1.7c3,1.1,5.7,2.8,7.9,5.1 c2.3,2.2,4.1,4.8,5.4,7.6c1.3,2.8,2.1,5.9,2.4,9.3c4.1-7.4,9.1-13.2,15-17.4c3-2.1,6.1-3.7,9.3-4.7c3.2-1,6.6-1.6,10.1-1.6 c4,0,7.7,0.6,10.8,1.9c3.2,1.2,6,3.1,8.4,5.6c2.4,2.5,4.2,5.3,5.3,8.3c1.2,3,1.8,6.4,1.8,10c0,3-0.4,6.8-1.1,11.3L446.5,259.8z M430.3,259.7h16.2l10.4-58.7c0.7-4.5,1.1-8.4,1.1-11.3c0-7.2-2.4-13.3-7.1-18.3c-4.7-5-11.2-7.5-19.2-7.5 c-6.9,0-13.4,2.1-19.3,6.3c-5.9,4.2-11,10.1-15,17.5l0,0.1l0-0.1c-0.6-6.8-3.2-12.5-7.7-17c-4.5-4.5-10.6-6.7-18-6.7 c-6.6,0-13,2.2-19.2,6.5c-6.1,4.3-11.1,10.1-14.7,17.3l-0.1,0.2l0-0.2l4-21.6H326l-16.4,93.6h16.2l6.5-37.2 c1.8-10.2,4.6-18.6,8.5-25.1c3.8-6.5,8.1-11.4,12.8-14.5c4.7-3.1,9.2-4.7,13.3-4.7c4.3,0,7.9,1.4,10.6,4.1 c2.7,2.8,4.1,6.5,4.1,11.2c0,1.2-0.1,2.5-0.2,3.9c-0.1,1.4-0.5,3.5-1.1,6.4l-10.3,56h16.2L393,221c1.8-9.9,4.6-18.1,8.5-24.4 s8.1-11,12.8-14c4.7-3,9-4.5,13-4.5c4.3,0,7.9,1.4,10.6,4.1c2.7,2.8,4.1,6.5,4.1,11.2c0,1.2-0.1,2.5-0.2,3.9 c-0.1,1.4-0.5,3.5-1.1,6.4L430.3,259.7z"
        />
      </g>
      <g id="plume_e">
        <path
          vector-effect="non-scaling-stroke"
          class="st0"
          d="M544.9,240.5l1.4,14.4c-3.6,1.7-8.2,3.3-13.7,4.8 c-5.5,1.5-11.6,2.3-18.4,2.3c-7.9,0-14.9-1.7-21-5.1s-10.8-8.3-14.2-14.8c-3.4-6.4-5.1-14-5.1-22.8c0-10,2.1-19.1,6.2-27.5 c4.1-8.4,10-15.1,17.6-20.2c7.6-5,16.5-7.6,26.7-7.6c7,0,12.9,1.3,17.7,4c4.9,2.6,8.6,6.1,11.3,10.3c2.6,4.2,4,8.7,4,13.5 c0,6.6-1.6,12.1-4.7,16.4c-3.1,4.3-7.1,7.7-12.1,10c-4.9,2.3-10.2,4-15.9,5c-5.7,1-11.1,1.4-16.3,1.4c-3.2,0-6.5-0.2-9.6-0.5 c-3.2-0.3-6-0.6-8.4-1c1,7.9,3.8,14,8.5,18.2c4.7,4.2,10.7,6.3,18,6.3c6,0,11.3-0.8,16-2.3S541.7,242,544.9,240.5z M523.3,177.6 c-5.6,0-10.7,1.4-15.3,4.2c-4.6,2.8-8.3,6.7-11.3,11.5s-4.9,10.4-5.9,16.7c2.8,0.5,5.6,0.9,8.4,1.2c2.8,0.3,5.9,0.5,9.3,0.5 c10.1,0,18.1-1.4,23.9-4.2c5.9-2.8,8.8-7.7,8.8-14.5c0-4.2-1.7-7.8-5-10.8C533.1,179.1,528.7,177.6,523.3,177.6z"
        />
        <path class="st1"
          d="M514.3,261.9c-3.9,0-7.7-0.4-11.2-1.3c-3.5-0.9-6.8-2.1-9.8-3.9c-3-1.7-5.7-3.8-8.1-6.3 c-2.4-2.5-4.4-5.3-6.1-8.5c-1.7-3.2-3-6.7-3.9-10.5c-0.9-3.8-1.3-7.9-1.3-12.3c0-5,0.5-9.8,1.6-14.4c1-4.6,2.6-9,4.7-13.2 c2.1-4.2,4.6-8,7.5-11.3c2.9-3.3,6.3-6.3,10.1-8.8s8-4.4,12.4-5.7c4.4-1.3,9.3-1.9,14.3-1.9c6.9,0,12.9,1.3,17.7,4 c4.8,2.6,8.6,6.1,11.3,10.3c2.6,4.2,4,8.7,4,13.5c0,6.6-1.6,12.1-4.7,16.4c-3.1,4.3-7.2,7.7-12.1,10c-4.9,2.3-10.3,4-15.9,5 c-5.7,1-11.2,1.4-16.3,1.4c-3.2,0-6.5-0.2-9.6-0.5c-3.1-0.3-5.9-0.6-8.3-1c1,7.9,3.8,14,8.5,18.1c4.7,4.2,10.7,6.3,18,6.3 c6,0,11.4-0.8,16-2.3c4.7-1.6,8.7-3.1,11.9-4.7l0,0l0,0l1.4,14.4l0,0c-3.6,1.7-8.2,3.3-13.7,4.8 C527.2,261.2,521,261.9,514.3,261.9z M524.6,164c-10.2,0-19.1,2.5-26.7,7.6c-7.6,5-13.5,11.8-17.6,20.2s-6.2,17.6-6.2,27.5 c0,8.7,1.7,16.4,5.1,22.8c3.4,6.4,8.2,11.4,14.2,14.8c6,3.4,13.1,5.1,21,5.1c6.7,0,12.9-0.8,18.4-2.2c5.5-1.5,10.1-3.1,13.7-4.8 l-1.4-14.4c-3.2,1.5-7.2,3.1-11.9,4.7c-4.7,1.6-10.1,2.3-16,2.3c-3.6,0-7-0.5-10-1.6c-3-1-5.7-2.6-8-4.7 c-2.3-2.1-4.2-4.7-5.6-7.7c-1.4-3-2.4-6.5-2.8-10.5l0,0l0,0c2.4,0.4,5.2,0.7,8.4,1c3.2,0.3,6.4,0.5,9.6,0.5 c5.1,0,10.6-0.5,16.3-1.4s11-2.6,15.9-4.9c4.9-2.3,8.9-5.7,12.1-10c3.1-4.3,4.7-9.8,4.7-16.4c0-4.8-1.3-9.3-4-13.5 c-2.6-4.2-6.4-7.6-11.2-10.3C537.5,165.3,531.5,164,524.6,164z M508.6,211.7c-3.3,0-6.5-0.2-9.3-0.5c-2.8-0.3-5.6-0.7-8.4-1.2 l0,0l0,0c1-6.2,2.9-11.8,5.9-16.7s6.7-8.7,11.3-11.5c4.5-2.8,9.7-4.2,15.3-4.2c5.4,0,9.8,1.5,13.1,4.5c3.3,3,5,6.6,5,10.8 c0,3.4-0.7,6.4-2.2,8.8c-1.5,2.4-3.7,4.3-6.6,5.7C526.7,210.3,518.6,211.7,508.6,211.7z M491,210c2.7,0.5,5.5,0.9,8.3,1.2 c2.8,0.3,5.9,0.5,9.3,0.5c10,0,18.1-1.4,23.9-4.2c5.8-2.8,8.8-7.7,8.8-14.5c0-4.2-1.7-7.8-4.9-10.8c-3.3-3-7.7-4.5-13-4.5 c-5.6,0-10.8,1.4-15.3,4.2c-4.5,2.8-8.3,6.7-11.2,11.5C493.9,198.2,491.9,203.8,491,210z"
        />
      </g>
    </g>
  </g>
</svg>